<svg xmlns="http://www.w3.org/2000/svg" xmlns:xlink="http://www.w3.org/1999/xlink" version="1.1" class="marks" width="350" height="300" viewBox="0 0 350 300"><rect width="350" height="300" fill="#ffffff"/><g fill="none" stroke-miterlimit="10" transform="translate(58,2)"><g class="mark-group role-frame root" role="graphics-object" aria-roledescription="group mark container"><g transform="translate(0,0)"><path class="background" aria-hidden="true" d="M0,0h291v221h-291Z" stroke-width="0"/><g><g class="mark-group role-axis" aria-hidden="true"><g transform="translate(0.5,221.5)"><path class="background" aria-hidden="true" d="M0,0h0v0h0Z" pointer-events="none"/><g><g class="mark-rule role-axis-grid" pointer-events="none"><line transform="translate(0,-221)" x2="0" y2="221" stroke="#e6eaf1" stroke-width="1" opacity="1"/><line transform="translate(32,-221)" x2="0" y2="221" stroke="#e6eaf1" stroke-width="1" opacity="1"/><line transform="translate(65,-221)" x2="0" y2="221" stroke="#e6eaf1" stroke-width="1" opacity="1"/><line transform="translate(97,-221)" x2="0" y2="221" stroke="#e6eaf1" stroke-width="1" opacity="1"/><line transform="translate(129,-221)" x2="0" y2="221" stroke="#e6eaf1" stroke-width="1" opacity="1"/><line transform="translate(162,-221)" x2="0" y2="221" stroke="#e6eaf1" stroke-width="1" opacity="1"/><line transform="translate(194,-221)" x2="0" y2="221" stroke="#e6eaf1" stroke-width="1" opacity="1"/><line transform="translate(226,-221)" x2="0" y2="221" stroke="#e6eaf1" stroke-width="1" opacity="1"/><line transform="translate(259,-221)" x2="0" y2="221" stroke="#e6eaf1" stroke-width="1" opacity="1"/><line transform="translate(291,-221)" x2="0" y2="221" stroke="#e6eaf1" stroke-width="1" opacity="1"/></g></g><path class="foreground" aria-hidden="true" d="" pointer-events="none" display="none"/></g></g><g class="mark-group role-axis" aria-hidden="true"><g transform="translate(0.5,0.5)"><path class="background" aria-hidden="true" d="M0,0h0v0h0Z" pointer-events="none"/><g><g class="mark-rule role-axis-grid" pointer-events="none"><line transform="translate(0,221)" x2="291" y2="0" stroke="#e6eaf1" stroke-width="1" opacity="1"/><line transform="translate(0,189)" x2="291" y2="0" stroke="#e6eaf1" stroke-width="1" opacity="1"/><line transform="translate(0,158)" x2="291" y2="0" stroke="#e6eaf1" stroke-width="1" opacity="1"/><line transform="translate(0,126)" x2="291" y2="0" stroke="#e6eaf1" stroke-width="1" opacity="1"/><line transform="translate(0,95)" x2="291" y2="0" stroke="#e6eaf1" stroke-width="1" opacity="1"/><line transform="translate(0,63)" x2="291" y2="0" stroke="#e6eaf1" stroke-width="1" opacity="1"/><line transform="translate(0,32)" x2="291" y2="0" stroke="#e6eaf1" stroke-width="1" opacity="1"/><line transform="translate(0,0)" x2="291" y2="0" stroke="#e6eaf1" stroke-width="1" opacity="1"/></g></g><path class="foreground" aria-hidden="true" d="" pointer-events="none" display="none"/></g></g><g class="mark-group role-axis" role="graphics-symbol" aria-roledescription="axis" aria-label="X-axis titled 'Time [s]' for a linear scale with values from 0 to 450"><g transform="translate(0.5,221.5)"><path class="background" aria-hidden="true" d="M0,0h0v0h0Z" pointer-events="none"/><g><g class="mark-text role-axis-label" pointer-events="none"><text text-anchor="start" transform="translate(-1,25)" font-family="&quot;Source Sans Pro&quot;, sans-serif" font-size="12px" font-style="normal" font-weight="400" fill="#808495" opacity="1">0</text><text text-anchor="middle" transform="translate(32.33333333333333,25)" font-family="&quot;Source Sans Pro&quot;, sans-serif" font-size="12px" font-style="normal" font-weight="400" fill="#808495" opacity="1">50</text><text text-anchor="middle" transform="translate(64.66666666666666,25)" font-family="&quot;Source Sans Pro&quot;, sans-serif" font-size="12px" font-style="normal" font-weight="400" fill="#808495" opacity="1">100</text><text text-anchor="middle" transform="translate(97,25)" font-family="&quot;Source Sans Pro&quot;, sans-serif" font-size="12px" font-style="normal" font-weight="400" fill="#808495" opacity="1">150</text><text text-anchor="middle" transform="translate(129.33333333333331,25)" font-family="&quot;Source Sans Pro&quot;, sans-serif" font-size="12px" font-style="normal" font-weight="400" fill="#808495" opacity="1">200</text><text text-anchor="middle" transform="translate(161.66666666666669,25)" font-family="&quot;Source Sans Pro&quot;, sans-serif" font-size="12px" font-style="normal" font-weight="400" fill="#808495" opacity="1">250</text><text text-anchor="middle" transform="translate(194,25)" font-family="&quot;Source Sans Pro&quot;, sans-serif" font-size="12px" font-style="normal" font-weight="400" fill="#808495" opacity="1">300</text><text text-anchor="middle" transform="translate(226.33333333333334,25)" font-family="&quot;Source Sans Pro&quot;, sans-serif" font-size="12px" font-style="normal" font-weight="400" fill="#808495" opacity="1">350</text><text text-anchor="middle" transform="translate(258.66666666666663,25)" font-family="&quot;Source Sans Pro&quot;, sans-serif" font-size="12px" font-style="normal" font-weight="400" fill="#808495" opacity="1">400</text><text text-anchor="end" transform="translate(292,25)" font-family="&quot;Source Sans Pro&quot;, sans-serif" font-size="12px" font-style="normal" font-weight="400" fill="#808495" opacity="1">450</text></g><g class="mark-text role-axis-title" pointer-events="none"><text text-anchor="middle" transform="translate(145.5,54)" font-family="&quot;Source Sans Pro&quot;, sans-serif" font-size="14px" font-style="normal" font-weight="400" fill="#808495" opacity="1">Time [s]</text></g></g><path class="foreground" aria-hidden="true" d="" pointer-events="none" display="none"/></g></g><g class="mark-group role-axis" role="graphics-symbol" aria-roledescription="axis" aria-label="Y-axis titled 'Temperature [°C]' for a linear scale with values from 0 to 35"><g transform="translate(0.5,0.5)"><path class="background" aria-hidden="true" d="M0,0h0v0h0Z" pointer-events="none"/><g><g class="mark-text role-axis-label" pointer-events="none"><text text-anchor="end" transform="translate(-16,219)" font-family="&quot;Source Sans Pro&quot;, sans-serif" font-size="12px" font-style="normal" font-weight="400" fill="#808495" opacity="1">0</text><text text-anchor="end" transform="translate(-16,193.42857142857144)" font-family="&quot;Source Sans Pro&quot;, sans-serif" font-size="12px" font-style="normal" font-weight="400" fill="#808495" opacity="1">5</text><text text-anchor="end" transform="translate(-16,161.85714285714286)" font-family="&quot;Source Sans Pro&quot;, sans-serif" font-size="12px" font-style="normal" font-weight="400" fill="#808495" opacity="1">10</text><text text-anchor="end" transform="translate(-16,130.28571428571428)" font-family="&quot;Source Sans Pro&quot;, sans-serif" font-size="12px" font-style="normal" font-weight="400" fill="#808495" opacity="1">15</text><text text-anchor="end" transform="translate(-16,98.71428571428572)" font-family="&quot;Source Sans Pro&quot;, sans-serif" font-size="12px" font-style="normal" font-weight="400" fill="#808495" opacity="1">20</text><text text-anchor="end" transform="translate(-16,67.14285714285714)" font-family="&quot;Source Sans Pro&quot;, sans-serif" font-size="12px" font-style="normal" font-weight="400" fill="#808495" opacity="1">25</text><text text-anchor="end" transform="translate(-16,35.571428571428584)" font-family="&quot;Source Sans Pro&quot;, sans-serif" font-size="12px" font-style="normal" font-weight="400" fill="#808495" opacity="1">30</text><text text-anchor="end" transform="translate(-16,8)" font-family="&quot;Source Sans Pro&quot;, sans-serif" font-size="12px" font-style="normal" font-weight="400" fill="#808495" opacity="1">35</text></g><g class="mark-text role-axis-title" pointer-events="none"><text text-anchor="middle" transform="translate(-43.927978515625,110.5) rotate(-90) translate(0,-3)" font-family="&quot;Source Sans Pro&quot;, sans-serif" font-size="14px" font-style="normal" font-weight="400" fill="#808495" opacity="1">Temperature [°C]</text></g></g><path class="foreground" aria-hidden="true" d="" pointer-events="none" display="none"/></g></g><g class="mark-line role-mark marks" role="graphics-object" aria-roledescription="line mark container"><path aria-label="Time [s]: 0; Temperature [°C]: 31.3358154297; Time (s): 0; Temp_3: 31.3358154297" role="graphics-symbol" aria-roledescription="line mark" d="M0,23.137L0.327,23.172L0.655,23.218L0.982,23.167L1.308,23.116L1.636,23.076L1.963,23.055L2.29,23.101L2.619,23.086L2.946,23.071L3.274,23.274L3.601,23.3L3.929,23.101L4.256,22.974L4.584,22.948L4.911,22.831L5.238,22.806L5.567,22.76L5.895,22.618L6.225,22.496L6.553,22.379L6.881,22.241L7.209,22.394L7.537,22.343L7.864,22.201L8.191,22.246L8.519,22.068L8.848,21.987L9.176,21.819L9.503,21.799L9.83,21.834L10.157,21.631L10.486,21.631L10.813,21.677L11.14,21.641L11.467,21.534L11.795,21.595L12.123,21.707L12.451,21.59L12.777,21.585L13.105,21.427L13.432,21.305L13.76,21.214L14.088,21.163L14.416,21.082L14.745,21.112L15.073,21.153L15.399,21.071L15.726,21.005L16.053,21.066L16.381,20.964L16.707,20.847L17.036,21.005L17.362,20.995L17.691,20.929L18.018,20.837L18.347,20.888L18.675,20.847L19.002,20.649L19.328,20.517L19.657,20.588L19.986,20.613L20.315,20.491L20.642,20.537L20.969,20.481L21.297,20.349L21.625,20.232L21.952,20.181L22.28,20.212L22.608,20.186L22.937,20.074L23.264,19.983L23.591,19.952L23.919,19.82L24.248,19.886L24.577,19.957L24.905,19.901L25.232,19.835L25.56,19.876L25.887,19.962L26.215,19.713L26.543,19.586L26.87,19.672L27.199,19.52L27.526,19.301L27.853,19.326L28.179,19.311L28.506,19.164L28.834,19.22L29.16,19.362L29.487,19.367L29.815,19.214L30.141,19.214L30.471,19.214L30.797,19.214L31.125,19.214L31.453,19.214L31.781,19.214L32.107,19.214L32.435,19.214L32.761,19.214L33.088,19.214L33.416,19.214L33.744,18.762L34.071,18.772L34.4,18.762L34.726,18.721L35.053,18.528L35.38,18.467L35.71,18.462L36.037,18.65L36.365,18.66L36.692,18.584L37.018,18.502L37.346,18.456L37.674,18.385L38.002,18.192L38.329,18.146L38.656,18.111L38.984,18.324L39.311,18.258L39.639,18.105L39.967,18.009L40.294,18.019L40.621,17.917L40.949,17.861L41.277,17.765L41.606,17.607L41.934,17.587L42.261,17.714L42.588,17.775L42.915,17.617L43.244,17.714L43.572,17.495L43.899,17.373L44.226,17.388L44.553,17.302L44.881,17.302L45.208,17.302L45.535,17.302L45.863,17.302L46.191,17.302L46.52,17.302L46.849,17.302L47.178,17.302L47.505,17.302L47.831,17.302L48.159,17.302L48.486,17.302L48.813,16.518L49.142,16.371L49.469,16.279L49.797,16.488L50.124,16.315L50.451,16.081L50.78,16.223L51.106,16.081L51.433,16.091L51.76,16.015L52.087,16.259L52.414,15.923L52.742,16.035L53.069,16.137L53.398,16.137L53.726,16.137L54.053,16.137L54.38,16.137L54.707,16.137L55.034,16.137L55.36,16.137L55.688,16.137L56.015,16.137L56.341,16.137L56.669,16.137L56.996,15.842L57.322,15.826L57.648,15.816L57.975,15.572L58.302,15.542L58.631,15.526L58.957,15.592L59.285,15.623L59.612,15.587L59.94,15.526L60.269,15.445L60.596,15.45L60.922,15.404L61.249,15.404L61.579,15.404L61.906,15.404L62.233,15.404L62.56,15.404L62.887,15.404L63.214,15.404L63.541,15.404L63.87,15.404L64.2,15.404L64.528,15.404L64.856,15.094L65.183,15.313L65.511,15.257L65.837,15.216L66.164,15.175L66.493,15.262L66.821,14.997L67.149,15.048L67.476,14.911L67.804,14.911L68.132,14.84L68.46,14.733L68.787,14.707L69.115,14.768L69.442,14.88L69.769,14.855L70.096,14.672L70.422,14.656L70.749,14.555L71.076,14.488L71.404,14.427L71.732,14.575L72.058,14.392L72.386,14.427L72.714,14.336L73.04,14.412L73.368,14.494L73.696,14.55L74.024,14.387L74.352,14.321L74.68,14.224L75.006,14.143L75.335,13.959L75.664,13.959L75.992,14.087L76.32,14.087L76.648,13.883L76.975,13.837L77.303,13.751L77.629,13.69L77.957,13.542L78.284,13.512L78.614,13.42L78.94,13.374L79.267,13.395L79.595,13.293L79.923,13.308L80.249,13.415L80.576,13.379L80.903,13.303L81.231,13.435L81.559,13.41L81.886,13.273L82.213,13.186L82.54,13.252L82.867,13.166L83.194,13.079L83.521,13.186L83.848,13.064L84.175,12.993L84.503,13.176L84.833,13.095L85.16,13.1L85.486,13.11L85.812,13.028L86.14,12.927L86.467,12.988L86.797,12.82L87.124,12.749L87.45,12.901L87.777,12.922L88.104,12.866L88.431,12.861L88.757,12.744L89.084,12.8L89.413,12.738L89.74,12.616L90.066,12.601L90.394,12.576L90.72,12.428L91.047,12.403L91.373,12.393L91.701,12.494L92.03,12.632L92.358,12.55L92.686,12.464L93.013,12.51L93.341,12.499L93.668,12.449L93.996,12.474L94.322,12.189L94.651,12.24L94.979,12.153L95.306,12.067L95.635,11.991L95.963,11.96L96.291,11.935L96.619,11.904L96.948,11.838L97.276,11.736L97.603,11.721L97.929,11.782L98.258,11.894L98.585,11.818L98.911,11.813L99.239,11.813L99.566,11.813L99.893,11.813L100.22,11.813L100.548,11.813L100.877,11.813L101.206,11.813L101.532,11.813L101.86,11.813L102.188,11.813L102.516,11.813L102.844,11.813L103.171,11.579L103.5,11.411L103.827,11.538L104.153,11.421L104.48,11.421L104.806,11.421L105.132,11.421L105.458,11.421L105.784,11.421L106.113,11.421L106.44,11.421L106.768,11.421L107.099,11.421L107.426,11.421L107.753,11.421L108.08,11.421L108.408,10.597L108.735,10.495L109.063,10.292L109.39,10.169L109.718,10.012L110.045,9.93L110.372,9.829L110.7,9.656L111.026,9.559L111.354,9.473L111.681,9.32L112.007,9.183L112.334,9.086L112.665,9.086L112.992,8.887L113.32,8.811L113.648,8.765L113.975,8.653L114.303,8.526L114.629,8.506L114.961,8.506L115.288,8.506L115.616,8.506L115.943,8.506L116.27,8.506L116.595,8.506L116.923,8.506L117.249,8.506L117.577,8.506L117.904,8.506L118.232,8.506L118.56,7.407L118.888,7.387L119.215,7.219L119.542,7.305L119.869,7.28L120.199,7.321L120.526,7.336L120.854,7.249L121.18,7.392L121.507,7.529L121.833,7.519L122.16,7.534L122.487,7.616L122.814,7.641L123.142,7.672L123.469,7.733L123.797,7.672L124.124,7.672L124.452,7.672L124.781,7.672L125.109,7.672L125.436,7.672L125.763,7.672L126.09,7.672L126.417,7.672L126.746,7.672L127.073,7.672L127.4,7.672L127.728,7.672L128.055,8.012L128.382,7.946L128.709,7.992L129.037,7.906L129.364,8.038L129.691,7.982L130.019,7.86L130.345,7.789L130.675,7.778L131.004,7.738L131.334,7.743L131.661,7.804L131.989,7.84L132.316,7.646L132.644,7.687L132.971,7.789L133.298,7.86L133.624,7.707L133.952,7.824L134.279,7.738L134.606,7.641L134.933,7.712L135.261,7.819L135.59,7.89L135.918,7.86L136.245,7.804L136.572,7.773L136.9,7.723L137.228,7.733L137.556,7.723L137.885,7.692L138.212,7.646L138.541,7.646L138.869,7.646L139.196,7.646L139.523,7.646L139.85,7.646L140.177,7.646L140.505,7.646L140.833,7.646L141.162,7.646L141.49,7.646L141.82,7.646L142.148,7.646L142.475,7.458L142.801,7.56L143.13,7.58L143.457,7.422L143.785,7.6L144.113,7.611L144.44,7.534L144.767,7.478L145.098,7.438L145.426,7.438L145.754,7.371L146.081,7.239L146.409,7.219L146.736,7.3L147.063,7.463L147.389,7.356L147.716,7.407L148.045,7.285L148.372,7.234L148.7,7.183L149.028,7.193L149.354,7.143L149.681,7.015L150.008,7.061L150.336,7.112L150.662,7.041L150.991,7.02L151.318,6.898L151.645,6.97L151.972,6.878L152.301,6.715L152.629,6.827L152.956,6.812L153.283,6.878L153.61,6.848L153.937,6.832L154.265,6.776L154.594,6.842L154.921,6.853L155.248,6.858L155.575,6.746L155.903,6.644L156.23,6.593L156.557,6.71L156.884,6.552L157.211,6.491L157.538,6.395L157.866,6.446L158.194,6.583L158.522,6.588L158.85,6.497L159.178,6.619L159.505,6.558L159.833,6.395L160.161,6.262L160.489,6.344L160.815,6.298L161.143,6.232L161.47,6.232L161.798,6.232L162.125,6.232L162.451,6.232L162.779,6.232L163.107,6.232L163.434,6.232L163.762,6.232L164.089,6.232L164.417,6.232L164.744,6.232L165.071,6.232L165.399,5.917L165.726,5.906L166.053,5.901L166.379,5.871L166.706,5.779L167.034,5.784L167.361,5.749L167.69,5.794L168.018,5.82L168.346,5.805L168.673,5.82L169,5.779L169.326,5.698L169.654,5.789L169.982,5.713L170.308,5.759L170.636,5.713L170.965,5.805L171.293,5.733L171.621,5.718L171.948,5.672L172.275,5.769L172.601,5.703L172.928,5.693L173.255,5.698L173.582,5.718L173.91,5.733L174.238,5.672L174.566,5.708L174.893,5.718L175.219,5.693L175.547,5.784L175.874,5.677L176.201,5.672L176.528,5.693L176.855,5.693L177.183,5.693L177.512,5.693L177.84,5.693L178.166,5.693L178.493,5.693L178.821,5.693L179.149,5.693L179.476,5.693L179.804,5.693L180.133,5.693L180.459,5.693L180.786,5.581L181.113,5.489L181.441,5.627L181.767,5.728L182.094,5.489L182.423,5.647L182.75,5.586L183.079,5.469L183.406,5.464L183.734,5.469L184.063,5.418L184.391,5.281L184.718,5.281L185.045,5.281L185.372,5.281L185.701,5.281L186.03,5.281L186.358,5.281L186.687,5.281L187.015,5.281L187.343,5.281L187.673,5.281L188,5.281L188.326,5.281L188.653,5.377L188.98,5.438L189.308,5.469L189.635,5.484L189.963,5.332L190.29,5.372L190.616,5.479L190.945,5.23L191.273,5.306L191.602,5.286L191.93,5.23L192.258,5.326L192.587,5.342L192.913,5.24L193.241,5.22L193.568,5.153L193.895,5.169L194.222,5.286L194.549,5.25L194.877,5.27L195.205,5.27L195.533,5.189L195.861,5.103L196.188,5.077L196.516,5.021L196.844,5.087L197.171,5.148L197.499,5.265L197.828,5.316L198.156,5.342L198.483,5.423L198.812,5.54L199.141,5.535L199.469,5.555L199.799,5.662L200.126,5.657L200.456,5.759L200.783,5.769L201.11,5.871L201.439,5.881L201.767,5.896L202.095,5.942L202.423,6.105L202.75,6.115L203.077,6.161L203.405,6.166L203.732,6.166L204.061,6.166L204.387,6.166L204.715,6.166L205.043,6.166L205.371,6.166L205.698,6.166L206.024,6.166L206.351,6.166L206.68,6.166L207.006,6.166L207.333,6.166L207.661,6.751L207.99,6.751L208.319,6.751L208.647,6.751L208.974,6.751L209.301,6.751L209.628,6.751L209.956,6.751L210.283,6.751L210.61,6.751L210.938,6.751L211.265,6.751L211.593,6.751L211.921,7.249L212.251,7.295L212.58,7.361L212.907,7.361L213.234,7.397L213.561,7.448L213.89,7.412L214.219,7.478L214.548,7.58L214.876,7.57L215.203,7.616L215.529,7.611L215.856,7.707L216.182,7.707L216.51,7.723L216.837,7.728L217.166,7.763L217.493,7.819L217.823,7.911L218.15,7.84L218.478,7.88L218.804,7.911L219.132,7.951L219.46,7.957L219.788,8.028L220.117,8.104L220.446,8.094L220.774,8.15L221.102,8.236L221.428,8.297L221.756,8.302L222.083,8.287L222.411,8.328L222.739,8.348L223.067,8.46L223.394,8.46L223.723,8.46L224.053,8.46L224.379,8.46L224.706,8.46L225.033,8.46L225.361,8.46L225.688,8.46L226.015,8.46L226.342,8.46L226.671,8.46L226.998,8.46L227.326,8.943L227.653,8.954L227.98,8.959L228.308,9.015L228.635,9.101L228.962,9.101L229.289,9.091L229.616,9.162L229.944,9.183L230.271,9.177L230.598,9.244L230.924,9.213L231.252,9.213L231.579,9.213L231.906,9.213L232.234,9.213L232.56,9.213L232.887,9.213L233.215,9.213L233.543,9.213L233.871,9.213L234.199,9.213L234.527,9.213L234.856,9.213L235.183,9.625L235.511,9.712L235.839,9.737L236.167,9.722L236.494,9.824L236.823,9.854L237.152,9.849L237.48,9.925L237.807,9.935L238.135,9.93L238.463,9.941L238.791,10.037L239.117,10.088L239.444,10.088L239.772,10.088L240.1,10.088L240.43,10.088L240.758,10.088L241.088,10.088L241.415,10.088L241.743,10.088L242.07,10.088L242.398,10.088L242.725,10.088L243.052,10.088L243.38,10.459L243.707,10.444L244.035,10.454L244.362,10.526L244.689,10.627L245.015,10.622L245.343,10.683L245.669,10.714L245.997,10.653L246.324,10.739L246.662,10.744L246.99,10.785L247.317,10.785L247.645,10.785L247.973,10.785L248.3,10.785L248.627,10.785L248.953,10.785L249.28,10.785L249.606,10.785L249.934,10.785L250.263,10.785L250.591,10.785L250.918,10.785L251.245,11.151L251.573,11.121L251.901,11.177L252.229,11.212L252.556,11.309L252.884,11.284L253.212,11.299L253.539,11.289L253.866,11.324L254.194,11.345L254.521,11.345L254.849,11.345L255.176,11.345L255.505,11.345L255.832,11.345L256.161,11.345L256.489,11.345L256.817,11.345L257.144,11.345L257.471,11.345L257.798,11.345L258.126,11.345L258.453,11.696L258.781,11.716L259.109,11.746L259.438,11.721L259.766,11.802L260.095,11.782L260.422,11.848L260.752,11.797L261.078,11.884L261.406,11.97L261.733,11.914L262.06,11.94L262.388,11.94L262.715,11.94L263.042,11.94L263.37,11.94L263.697,11.94L264.024,11.94L264.353,11.94L264.679,11.94L265.007,11.94L265.334,11.94L265.662,11.94L265.989,11.94L266.317,12.235L266.643,12.276L266.971,12.306L267.298,12.281L267.625,12.301L267.952,12.357L268.28,12.306L268.608,12.449L268.937,12.428L269.266,12.438L269.593,12.494L269.92,12.494L270.248,12.494L270.575,12.494L270.903,12.494L271.232,12.494L271.56,12.494" stroke="#0068c9" stroke-width="2"/></g></g><path class="foreground" aria-hidden="true" d="" display="none"/></g></g></g></svg>