<svg xmlns="http://www.w3.org/2000/svg" xmlns:xlink="http://www.w3.org/1999/xlink" version="1.1" class="marks" width="350" height="300" viewBox="0 0 350 300"><rect width="350" height="300" fill="#ffffff"/><g fill="none" stroke-miterlimit="10" transform="translate(64,2)"><g class="mark-group role-frame root" role="graphics-object" aria-roledescription="group mark container"><g transform="translate(0,0)"><path class="background" aria-hidden="true" d="M0,0h285v221h-285Z" stroke-width="0"/><g><g class="mark-group role-axis" aria-hidden="true"><g transform="translate(0.5,221.5)"><path class="background" aria-hidden="true" d="M0,0h0v0h0Z" pointer-events="none"/><g><g class="mark-rule role-axis-grid" pointer-events="none"><line transform="translate(0,-221)" x2="0" y2="221" stroke="#e6eaf1" stroke-width="1" opacity="1"/><line transform="translate(32,-221)" x2="0" y2="221" stroke="#e6eaf1" stroke-width="1" opacity="1"/><line transform="translate(63,-221)" x2="0" y2="221" stroke="#e6eaf1" stroke-width="1" opacity="1"/><line transform="translate(95,-221)" x2="0" y2="221" stroke="#e6eaf1" stroke-width="1" opacity="1"/><line transform="translate(127,-221)" x2="0" y2="221" stroke="#e6eaf1" stroke-width="1" opacity="1"/><line transform="translate(158,-221)" x2="0" y2="221" stroke="#e6eaf1" stroke-width="1" opacity="1"/><line transform="translate(190,-221)" x2="0" y2="221" stroke="#e6eaf1" stroke-width="1" opacity="1"/><line transform="translate(222,-221)" x2="0" y2="221" stroke="#e6eaf1" stroke-width="1" opacity="1"/><line transform="translate(253,-221)" x2="0" y2="221" stroke="#e6eaf1" stroke-width="1" opacity="1"/><line transform="translate(285,-221)" x2="0" y2="221" stroke="#e6eaf1" stroke-width="1" opacity="1"/></g></g><path class="foreground" aria-hidden="true" d="" pointer-events="none" display="none"/></g></g><g class="mark-group role-axis" aria-hidden="true"><g transform="translate(0.5,0.5)"><path class="background" aria-hidden="true" d="M0,0h0v0h0Z" pointer-events="none"/><g><g class="mark-rule role-axis-grid" pointer-events="none"><line transform="translate(0,221)" x2="285" y2="0" stroke="#e6eaf1" stroke-width="1" opacity="1"/><line transform="translate(0,193)" x2="285" y2="0" stroke="#e6eaf1" stroke-width="1" opacity="1"/><line transform="translate(0,166)" x2="285" y2="0" stroke="#e6eaf1" stroke-width="1" opacity="1"/><line transform="translate(0,138)" x2="285" y2="0" stroke="#e6eaf1" stroke-width="1" opacity="1"/><line transform="translate(0,111)" x2="285" y2="0" stroke="#e6eaf1" stroke-width="1" opacity="1"/><line transform="translate(0,83)" x2="285" y2="0" stroke="#e6eaf1" stroke-width="1" opacity="1"/><line transform="translate(0,55)" x2="285" y2="0" stroke="#e6eaf1" stroke-width="1" opacity="1"/><line transform="translate(0,28)" x2="285" y2="0" stroke="#e6eaf1" stroke-width="1" opacity="1"/><line transform="translate(0,0)" x2="285" y2="0" stroke="#e6eaf1" stroke-width="1" opacity="1"/></g></g><path class="foreground" aria-hidden="true" d="" pointer-events="none" display="none"/></g></g><g class="mark-group role-axis" role="graphics-symbol" aria-roledescription="axis" aria-label="X-axis titled 'Time [s]' for a linear scale with values from 0 to 450"><g transform="translate(0.5,221.5)"><path class="background" aria-hidden="true" d="M0,0h0v0h0Z" pointer-events="none"/><g><g class="mark-text role-axis-label" pointer-events="none"><text text-anchor="start" transform="translate(-1,25)" font-family="&quot;Source Sans Pro&quot;, sans-serif" font-size="12px" font-style="normal" font-weight="400" fill="#808495" opacity="1">0</text><text text-anchor="middle" transform="translate(31.666666666666664,25)" font-family="&quot;Source Sans Pro&quot;, sans-serif" font-size="12px" font-style="normal" font-weight="400" fill="#808495" opacity="1">50</text><text text-anchor="middle" transform="translate(63.33333333333333,25)" font-family="&quot;Source Sans Pro&quot;, sans-serif" font-size="12px" font-style="normal" font-weight="400" fill="#808495" opacity="1">100</text><text text-anchor="middle" transform="translate(95,25)" font-family="&quot;Source Sans Pro&quot;, sans-serif" font-size="12px" font-style="normal" font-weight="400" fill="#808495" opacity="1">150</text><text text-anchor="middle" transform="translate(126.66666666666666,25)" font-family="&quot;Source Sans Pro&quot;, sans-serif" font-size="12px" font-style="normal" font-weight="400" fill="#808495" opacity="1">200</text><text text-anchor="middle" transform="translate(158.33333333333334,25)" font-family="&quot;Source Sans Pro&quot;, sans-serif" font-size="12px" font-style="normal" font-weight="400" fill="#808495" opacity="1">250</text><text text-anchor="middle" transform="translate(190,25)" font-family="&quot;Source Sans Pro&quot;, sans-serif" font-size="12px" font-style="normal" font-weight="400" fill="#808495" opacity="1">300</text><text text-anchor="middle" transform="translate(221.66666666666666,25)" font-family="&quot;Source Sans Pro&quot;, sans-serif" font-size="12px" font-style="normal" font-weight="400" fill="#808495" opacity="1">350</text><text text-anchor="middle" transform="translate(253.33333333333331,25)" font-family="&quot;Source Sans Pro&quot;, sans-serif" font-size="12px" font-style="normal" font-weight="400" fill="#808495" opacity="1">400</text><text text-anchor="end" transform="translate(286,25)" font-family="&quot;Source Sans Pro&quot;, sans-serif" font-size="12px" font-style="normal" font-weight="400" fill="#808495" opacity="1">450</text></g><g class="mark-text role-axis-title" pointer-events="none"><text text-anchor="middle" transform="translate(142.5,54)" font-family="&quot;Source Sans Pro&quot;, sans-serif" font-size="14px" font-style="normal" font-weight="400" fill="#808495" opacity="1">Time [s]</text></g></g><path class="foreground" aria-hidden="true" d="" pointer-events="none" display="none"/></g></g><g class="mark-group role-axis" role="graphics-symbol" aria-roledescription="axis" aria-label="Y-axis titled 'Position [deg]' for a linear scale with values from 0 to 400"><g transform="translate(0.5,0.5)"><path class="background" aria-hidden="true" d="M0,0h0v0h0Z" pointer-events="none"/><g><g class="mark-text role-axis-label" pointer-events="none"><text text-anchor="end" transform="translate(-16,219)" font-family="&quot;Source Sans Pro&quot;, sans-serif" font-size="12px" font-style="normal" font-weight="400" fill="#808495" opacity="1">0</text><text text-anchor="end" transform="translate(-16,197.375)" font-family="&quot;Source Sans Pro&quot;, sans-serif" font-size="12px" font-style="normal" font-weight="400" fill="#808495" opacity="1">50</text><text text-anchor="end" transform="translate(-16,169.75)" font-family="&quot;Source Sans Pro&quot;, sans-serif" font-size="12px" font-style="normal" font-weight="400" fill="#808495" opacity="1">100</text><text text-anchor="end" transform="translate(-16,142.125)" font-family="&quot;Source Sans Pro&quot;, sans-serif" font-size="12px" font-style="normal" font-weight="400" fill="#808495" opacity="1">150</text><text text-anchor="end" transform="translate(-16,114.5)" font-family="&quot;Source Sans Pro&quot;, sans-serif" font-size="12px" font-style="normal" font-weight="400" fill="#808495" opacity="1">200</text><text text-anchor="end" transform="translate(-16,86.875)" font-family="&quot;Source Sans Pro&quot;, sans-serif" font-size="12px" font-style="normal" font-weight="400" fill="#808495" opacity="1">250</text><text text-anchor="end" transform="translate(-16,59.25)" font-family="&quot;Source Sans Pro&quot;, sans-serif" font-size="12px" font-style="normal" font-weight="400" fill="#808495" opacity="1">300</text><text text-anchor="end" transform="translate(-16,31.625)" font-family="&quot;Source Sans Pro&quot;, sans-serif" font-size="12px" font-style="normal" font-weight="400" fill="#808495" opacity="1">350</text><text text-anchor="end" transform="translate(-16,8)" font-family="&quot;Source Sans Pro&quot;, sans-serif" font-size="12px" font-style="normal" font-weight="400" fill="#808495" opacity="1">400</text></g><g class="mark-text role-axis-title" pointer-events="none"><text text-anchor="middle" transform="translate(-49.8919677734375,110.5) rotate(-90) translate(0,-3)" font-family="&quot;Source Sans Pro&quot;, sans-serif" font-size="14px" font-style="normal" font-weight="400" fill="#808495" opacity="1">Position [deg]</text></g></g><path class="foreground" aria-hidden="true" d="" pointer-events="none" display="none"/></g></g><g class="mark-line role-mark marks" role="graphics-object" aria-roledescription="line mark container"><path aria-label="Time [s]: 0; Position [deg]: 359.999084473; Time (s): 0; Pos_3: 359.999084473" role="graphics-symbol" aria-roledescription="line mark" d="M0,22.101L0.32,22.101L0.641,22.101L0.961,218.387L1.281,211.374L1.602,204.416L1.922,197.437L2.243,190.436L2.565,183.437L2.885,176.441L3.206,172.426L3.527,172.452L3.848,173.917L4.169,174.632L4.489,174.839L4.81,179.61L5.13,180.903L5.452,180.958L5.773,184.403L6.097,184.645L6.418,183.89L6.739,177.73L7.06,173.231L7.381,173.209L7.702,174.477L8.022,178.473L8.343,178.48L8.665,180.003L8.987,186.725L9.307,190.594L9.627,190.564L9.948,188.685L10.27,182.93L10.59,182.351L10.91,182.151L11.23,176.944L11.552,171.969L11.873,171.851L12.194,172.235L12.513,177.824L12.835,184.829L13.155,191.803L13.476,195.464L13.797,195.427L14.119,193.224L14.441,189.059L14.762,189.068L15.081,187.298L15.402,184.325L15.722,184.355L16.043,181.781L16.363,174.819L16.685,171.862L17.004,171.896L17.326,174.483L17.646,181.461L17.968,184.362L18.289,184.328L18.61,181.675L18.929,175.063L19.252,173.632L19.574,173.648L19.896,177.374L20.217,178.957L20.537,178.959L20.858,183.322L21.179,189.355L21.499,190.017L21.82,190.312L22.142,192.14L22.464,192.122L22.785,192.899L23.105,192.799L23.426,188.036L23.748,183.164L24.071,183.082L24.392,181.928L24.712,175.801L25.033,174.338L25.354,174.363L25.674,178.43L25.996,184.37L26.316,184.949L26.638,185.106L26.958,190.103L27.278,192.81L27.598,192.778L27.918,189.846L28.239,183.879L28.559,183.289L28.879,183.735L29.2,184.494L29.52,184.494L29.843,184.494L30.162,184.494L30.484,184.494L30.804,184.494L31.125,184.494L31.445,184.494L31.766,184.494L32.086,184.494L32.406,184.494L32.727,184.494L33.048,185.459L33.369,192.3L33.69,194.13L34.01,194.111L34.33,191.51L34.65,184.521L34.974,177.498L35.294,174.64L35.615,174.673L35.935,177.248L36.255,184.239L36.576,188.344L36.897,188.326L37.218,186.804L37.538,180.142L37.859,174.691L38.181,174.391L38.5,174.968L38.822,180.916L39.143,187.19L39.463,188.117L39.784,188.277L40.105,188.567L40.426,187.91L40.748,181.878L41.069,175.355L41.39,174.07L41.71,174.206L42.031,176.396L42.352,176.365L42.673,178.509L42.994,182.814L43.315,182.831L43.635,181.438L43.956,181.3L44.275,181.3L44.596,181.3L44.917,181.3L45.239,181.3L45.561,181.3L45.883,181.3L46.205,181.3L46.525,181.3L46.845,181.3L47.166,181.3L47.487,181.3L47.807,187.606L48.128,187.585L48.449,184.63L48.77,184.411L49.091,185.347L49.411,185.866L49.733,186.33L50.053,190.67L50.373,190.976L50.693,190.18L51.013,188.958L51.334,188.844L51.655,183.922L51.975,181.807L52.297,181.807L52.618,181.807L52.939,181.807L53.259,181.807L53.579,181.807L53.899,181.807L54.219,181.807L54.54,181.807L54.86,181.807L55.18,181.807L55.501,181.807L55.821,180.81L56.141,184.302L56.46,187.551L56.78,187.515L57.1,189.664L57.422,194.509L57.742,194.616L58.063,194.688L58.383,194.53L58.704,193.334L59.026,193.382L59.347,193.927L59.666,193.927L59.986,193.927L60.309,193.927L60.63,193.927L60.95,193.927L61.27,193.927L61.591,193.927L61.911,193.927L62.231,193.927L62.553,193.927L62.876,193.927L63.198,193.927L63.518,182.545L63.839,181.78L64.16,181.529L64.479,177.688L64.8,177.478L65.122,178.05L65.443,183.978L65.765,190.98L66.085,194.494L66.406,194.454L66.727,192.752L67.048,185.982L67.368,179.029L67.689,173.21L68.01,172.722L68.33,173.129L68.651,178.72L68.97,184.875L69.29,185.617L69.611,185.694L69.932,190.445L70.253,193.51L70.572,193.475L70.894,191.064L71.214,184.104L71.534,177.42L71.855,175.837L72.176,175.857L72.497,176.358L72.819,176.627L73.14,179.49L73.46,179.457L73.782,177.589L74.104,177.207L74.425,177.692L74.746,178.838L75.067,178.73L75.388,176.047L75.709,176.066L76.028,177.233L76.35,183.772L76.67,190.711L76.993,195.924L77.312,196.108L77.633,195.671L77.954,189.984L78.275,183.034L78.594,180.314L78.915,180.349L79.235,177.907L79.556,177.245L79.877,177.551L80.198,182.969L80.518,189.932L80.838,194.15L81.158,194.141L81.479,192.978L81.799,192.976L82.119,191.47L82.439,184.815L82.761,181.367L83.084,181.402L83.404,183.58L83.723,184.598L84.043,184.832L84.364,188.324L84.684,188.399L85.007,187.18L85.328,180.936L85.647,179.283L85.967,179.309L86.287,180.7L86.608,180.681L86.927,183.596L87.247,187.464L87.569,187.434L87.89,189.109L88.209,195.094L88.53,195.951L88.85,195.857L89.17,191.163L89.489,184.155L89.81,177.949L90.132,177.127L90.454,176.845L90.775,172.475L91.095,171.929L91.416,172.525L91.737,174.153L92.058,174.137L92.378,178.189L92.699,180.896L93.02,180.867L93.341,183.427L93.663,189.783L93.984,190.779L94.306,190.927L94.627,194.558L94.949,194.763L95.27,194.33L95.591,188.667L95.91,181.68L96.232,177.743L96.552,177.775L96.872,176.333L97.192,176.333L97.513,176.333L97.833,176.333L98.154,176.333L98.475,176.333L98.797,176.333L99.119,176.333L99.439,176.333L99.76,176.333L100.081,176.333L100.403,176.333L100.723,176.333L101.044,173.818L101.366,178.771L101.686,179.352L102.006,179.641L102.326,180.072L102.645,180.072L102.965,180.072L103.284,180.072L103.603,180.072L103.925,180.072L104.245,180.072L104.566,180.072L104.891,180.072L105.211,180.072L105.531,180.072L105.852,180.072L106.172,173.932L106.493,173.932L106.814,173.932L107.134,173.932L107.456,173.933L107.776,173.933L108.096,173.933L108.417,173.933L108.737,173.933L109.058,173.933L109.378,173.933L109.698,173.933L110.018,173.933L110.342,173.933L110.662,173.933L110.984,173.933L111.304,173.933L111.625,173.933L111.946,173.933L112.265,173.933L112.59,173.933L112.911,173.933L113.232,173.933L113.552,173.933L113.872,173.933L114.191,173.933L114.512,173.933L114.832,173.933L115.153,173.933L115.473,173.933L115.795,173.933L116.115,174.72L116.437,174.884L116.757,179.988L117.077,186.982L117.397,192.425L117.721,192.71L118.041,192.238L118.362,186.53L118.682,182.075L119.001,182.062L119.321,183.355L119.641,189.922L119.961,194.179L120.282,194.175L120.603,193.499L120.924,193.516L121.244,191.083L121.565,190.094L121.886,190.094L122.208,190.094L122.529,190.094L122.85,190.094L123.169,190.094L123.49,190.094L123.81,190.094L124.133,190.094L124.453,190.094L124.774,190.094L125.094,190.094L125.415,176.351L125.735,177.166L126.056,176.982L126.376,173.207L126.697,172.928L127.017,173.344L127.338,178.987L127.658,185.979L127.981,190.672L128.303,190.715L128.626,192.144L128.947,194.33L129.267,194.31L129.588,191.21L129.909,184.423L130.23,182.648L130.549,182.677L130.869,185.92L131.19,186.377L131.51,185.902L131.831,180.16L132.151,175.88L132.472,175.889L132.794,177.622L133.116,180.795L133.436,180.762L133.756,183.202L134.077,188.554L134.398,188.824L134.72,189.586L135.042,189.755L135.362,188.995L135.684,188.995L136.006,188.995L136.326,188.995L136.646,188.995L136.966,188.995L137.287,188.995L137.608,188.995L137.93,188.995L138.251,188.995L138.573,188.995L138.896,188.995L139.217,188.995L139.538,186.909L139.857,186.103L140.179,185.906L140.5,180.756L140.82,178.322L141.141,178.349L141.462,181.369L141.782,188.39L142.106,192.369L142.427,192.336L142.748,190.843L143.069,184.192L143.39,177.172L143.711,172.129L144.031,171.968L144.35,172.773L144.671,176.343L144.993,176.325L145.312,178.085L145.634,184.688L145.955,186.533L146.275,186.509L146.595,182.509L146.915,178.522L147.236,178.551L147.556,180.098L147.878,186.776L148.198,193.102L148.519,194.069L148.839,194.007L149.161,189.466L149.482,183.654L149.802,183.159L150.123,182.772L150.443,181.552L150.763,181.525L151.084,177.009L151.406,172.38L151.727,172.338L152.047,173.191L152.367,179.419L152.688,186.435L153.008,193.317L153.329,195.556L153.649,195.531L153.969,192.777L154.29,185.772L154.611,178.99L154.932,177.007L155.253,177.029L155.575,173.814L155.896,173.088L156.216,173.171L156.538,177.872L156.859,184.673L157.179,186.516L157.499,186.496L157.821,185.713L158.141,185.713L158.462,185.713L158.782,185.713L159.102,185.713L159.423,185.713L159.744,185.713L160.064,185.713L160.385,185.713L160.705,185.713L161.027,185.713L161.347,185.713L161.668,185.713L161.988,187.31L162.309,193.503L162.629,194.342L162.949,194.333L163.268,194.332L163.59,194.332L163.91,194.332L164.232,194.332L164.554,194.332L164.875,194.332L165.195,194.332L165.516,194.332L165.835,194.332L166.156,194.332L166.477,194.332L166.796,194.332L167.118,194.332L167.44,194.332L167.761,194.332L168.082,194.332L168.402,194.332L168.723,194.332L169.042,194.332L169.363,194.332L169.682,194.332L170.003,194.332L170.325,194.332L170.646,194.332L170.966,194.332L171.287,194.332L171.606,194.332L171.927,194.332L172.247,194.332L172.568,194.332L172.888,194.332L173.209,194.332L173.53,194.332L173.852,194.332L174.173,194.332L174.493,194.332L174.813,194.332L175.134,194.332L175.455,194.332L175.776,194.332L176.096,194.332L176.419,194.332L176.739,194.332L177.058,190.433L177.378,188.197L177.699,185.572L178.019,185.601L178.34,182.906L178.661,182.125L178.982,182.365L179.304,187.643L179.625,193.211L179.945,193.557L180.268,193.023L180.589,190.342L180.909,190.342L181.23,190.342L181.55,190.342L181.872,190.342L182.194,190.342L182.516,190.342L182.838,190.342L183.159,190.342L183.48,190.342L183.804,190.342L184.123,190.342L184.443,190.342L184.763,182.499L185.084,188.811L185.405,189.745L185.725,189.552L186.046,185.698L186.366,185.377L186.686,185.983L187.008,191.512L187.329,192.901L187.651,192.787L187.973,189.093L188.294,188.721L188.616,189.198L188.935,193.408L189.257,193.65L189.577,192.941L189.897,188.382L190.218,188.097L190.538,188.944L190.859,189.2L191.18,189.449L191.502,194.795L191.822,201.791L192.143,208.789L192.464,215.786L192.786,220.853L193.106,22.102L193.427,22.101L193.749,22.101L194.07,22.101L194.391,22.101L194.713,22.101L195.035,22.101L195.357,22.101L195.679,22.101L196,22.101L196.322,22.101L196.643,22.101L196.964,22.101L197.286,22.101L197.607,22.101L197.928,22.101L198.249,22.101L198.57,22.101L198.89,22.101L199.211,22.101L199.531,22.101L199.853,22.101L200.173,22.101L200.494,22.101L200.815,22.101L201.136,22.101L201.457,22.101L201.776,22.101L202.096,22.101L202.418,22.101L202.738,22.101L203.058,22.101L203.38,22.101L203.701,22.101L204.023,22.101L204.345,22.101L204.665,22.101L204.986,22.101L205.306,22.101L205.627,22.101L205.947,22.101L206.268,22.101L206.588,22.101L206.909,22.101L207.231,22.101L207.552,22.101L207.875,22.101L208.196,22.101L208.517,22.101L208.838,22.101L209.158,22.101L209.479,22.101L209.802,22.101L210.125,22.101L210.446,22.101L210.765,22.101L211.085,22.101L211.405,22.101L211.725,22.101L212.046,22.101L212.366,22.101L212.688,22.101L213.008,22.101L213.331,22.101L213.652,22.101L213.973,22.101L214.293,22.101L214.614,22.101L214.935,22.101L215.256,22.101L215.578,22.101L215.9,22.101L216.222,22.101L216.543,22.101L216.862,22.101L217.183,22.101L217.504,22.101L217.825,22.101L218.146,22.101L218.467,22.101L218.788,22.101L219.11,22.101L219.433,22.101L219.753,22.101L220.073,22.101L220.393,22.101L220.715,22.101L221.035,22.101L221.355,22.101L221.675,22.101L221.997,22.101L222.318,22.101L222.639,22.101L222.959,22.101L223.28,22.101L223.6,22.101L223.921,22.101L224.241,22.101L224.562,22.101L224.882,22.101L225.203,22.101L225.523,22.101L225.843,22.101L226.163,22.101L226.484,22.101L226.805,22.101L227.125,22.101L227.445,22.101L227.765,22.101L228.086,22.101L228.407,22.101L228.727,22.101L229.049,22.101L229.37,22.101L229.692,22.101L230.014,22.101L230.334,22.101L230.655,22.101L230.976,22.101L231.298,22.101L231.618,22.101L231.94,22.101L232.262,22.101L232.583,22.101L232.904,22.101L233.225,22.101L233.547,22.101L233.867,22.101L234.187,22.101L234.507,22.101L234.828,22.101L235.149,22.101L235.472,22.101L235.794,22.101L236.117,22.101L236.437,22.101L236.758,22.101L237.079,22.101L237.4,22.101L237.721,22.101L238.041,22.101L238.361,22.101L238.682,22.101L239.003,22.101L239.324,22.101L239.644,22.101L239.964,22.101L240.284,22.101L240.604,22.101L240.925,22.101L241.245,22.101L241.576,22.101L241.897,22.101L242.218,22.101L242.539,22.101L242.86,22.101L243.18,22.101L243.5,22.101L243.82,22.101L244.14,22.101L244.46,22.101L244.781,22.101L245.103,22.101L245.424,22.101L245.745,22.101L246.065,22.101L246.386,22.101L246.707,22.101L247.028,22.101L247.348,22.101L247.67,22.101L247.991,22.101L248.312,22.101L248.632,22.101L248.953,22.101L249.273,22.101L249.594,22.101L249.914,22.101L250.236,22.101L250.557,22.101L250.879,22.101L251.201,22.101L251.522,22.101L251.842,22.101L252.162,22.101L252.483,22.101L252.803,22.101L253.124,22.101L253.445,22.101L253.767,22.101L254.089,22.101L254.41,22.101L254.732,22.101L255.053,22.101L255.376,22.101L255.695,22.101L256.017,22.101L256.337,22.101L256.657,22.101L256.978,22.101L257.298,22.101L257.619,22.101L257.939,22.101L258.26,22.101L258.58,22.101L258.902,22.101L259.222,22.101L259.543,22.101L259.863,22.101L260.184,22.101L260.505,22.101L260.826,22.101L261.146,22.101L261.466,22.101L261.786,22.101L262.107,22.101L262.427,22.101L262.749,22.101L263.07,22.101L263.392,22.101L263.714,22.101L264.034,22.101L264.355,22.101L264.676,22.101L264.996,22.101L265.318,22.101L265.64,22.101L265.961,22.101" stroke="#0068c9" stroke-width="2"/></g></g><path class="foreground" aria-hidden="true" d="" display="none"/></g></g></g></svg>