<svg xmlns="http://www.w3.org/2000/svg" xmlns:xlink="http://www.w3.org/1999/xlink" version="1.1" class="marks" width="350" height="300" viewBox="0 0 350 300"><rect width="350" height="300" fill="#ffffff"/><g fill="none" stroke-miterlimit="10" transform="translate(58,0)"><g class="mark-group role-frame root" role="graphics-object" aria-roledescription="group mark container"><g transform="translate(0,0)"><path class="background" aria-hidden="true" d="M0,0h291v223h-291Z" stroke-width="0"/><g><g class="mark-group role-axis" aria-hidden="true"><g transform="translate(0.5,223.5)"><path class="background" aria-hidden="true" d="M0,0h0v0h0Z" pointer-events="none"/><g><g class="mark-rule role-axis-grid" pointer-events="none"><line transform="translate(0,-223)" x2="0" y2="223" stroke="#e6eaf1" stroke-width="1" opacity="1"/><line transform="translate(32,-223)" x2="0" y2="223" stroke="#e6eaf1" stroke-width="1" opacity="1"/><line transform="translate(65,-223)" x2="0" y2="223" stroke="#e6eaf1" stroke-width="1" opacity="1"/><line transform="translate(97,-223)" x2="0" y2="223" stroke="#e6eaf1" stroke-width="1" opacity="1"/><line transform="translate(129,-223)" x2="0" y2="223" stroke="#e6eaf1" stroke-width="1" opacity="1"/><line transform="translate(162,-223)" x2="0" y2="223" stroke="#e6eaf1" stroke-width="1" opacity="1"/><line transform="translate(194,-223)" x2="0" y2="223" stroke="#e6eaf1" stroke-width="1" opacity="1"/><line transform="translate(226,-223)" x2="0" y2="223" stroke="#e6eaf1" stroke-width="1" opacity="1"/><line transform="translate(259,-223)" x2="0" y2="223" stroke="#e6eaf1" stroke-width="1" opacity="1"/><line transform="translate(291,-223)" x2="0" y2="223" stroke="#e6eaf1" stroke-width="1" opacity="1"/></g></g><path class="foreground" aria-hidden="true" d="" pointer-events="none" display="none"/></g></g><g class="mark-group role-axis" aria-hidden="true"><g transform="translate(0.5,0.5)"><path class="background" aria-hidden="true" d="M0,0h0v0h0Z" pointer-events="none"/><g><g class="mark-rule role-axis-grid" pointer-events="none"><line transform="translate(0,206)" x2="291" y2="0" stroke="#e6eaf1" stroke-width="1" opacity="1"/><line transform="translate(0,163)" x2="291" y2="0" stroke="#e6eaf1" stroke-width="1" opacity="1"/><line transform="translate(0,120)" x2="291" y2="0" stroke="#e6eaf1" stroke-width="1" opacity="1"/><line transform="translate(0,77)" x2="291" y2="0" stroke="#e6eaf1" stroke-width="1" opacity="1"/><line transform="translate(0,34)" x2="291" y2="0" stroke="#e6eaf1" stroke-width="1" opacity="1"/></g></g><path class="foreground" aria-hidden="true" d="" pointer-events="none" display="none"/></g></g><g class="mark-group role-axis" role="graphics-symbol" aria-roledescription="axis" aria-label="X-axis titled 'Time [s]' for a linear scale with values from 0 to 450"><g transform="translate(0.5,223.5)"><path class="background" aria-hidden="true" d="M0,0h0v0h0Z" pointer-events="none"/><g><g class="mark-text role-axis-label" pointer-events="none"><text text-anchor="start" transform="translate(-1,25)" font-family="&quot;Source Sans Pro&quot;, sans-serif" font-size="12px" font-style="normal" font-weight="400" fill="#808495" opacity="1">0</text><text text-anchor="middle" transform="translate(32.33333333333333,25)" font-family="&quot;Source Sans Pro&quot;, sans-serif" font-size="12px" font-style="normal" font-weight="400" fill="#808495" opacity="1">50</text><text text-anchor="middle" transform="translate(64.66666666666666,25)" font-family="&quot;Source Sans Pro&quot;, sans-serif" font-size="12px" font-style="normal" font-weight="400" fill="#808495" opacity="1">100</text><text text-anchor="middle" transform="translate(97,25)" font-family="&quot;Source Sans Pro&quot;, sans-serif" font-size="12px" font-style="normal" font-weight="400" fill="#808495" opacity="1">150</text><text text-anchor="middle" transform="translate(129.33333333333331,25)" font-family="&quot;Source Sans Pro&quot;, sans-serif" font-size="12px" font-style="normal" font-weight="400" fill="#808495" opacity="1">200</text><text text-anchor="middle" transform="translate(161.66666666666669,25)" font-family="&quot;Source Sans Pro&quot;, sans-serif" font-size="12px" font-style="normal" font-weight="400" fill="#808495" opacity="1">250</text><text text-anchor="middle" transform="translate(194,25)" font-family="&quot;Source Sans Pro&quot;, sans-serif" font-size="12px" font-style="normal" font-weight="400" fill="#808495" opacity="1">300</text><text text-anchor="middle" transform="translate(226.33333333333334,25)" font-family="&quot;Source Sans Pro&quot;, sans-serif" font-size="12px" font-style="normal" font-weight="400" fill="#808495" opacity="1">350</text><text text-anchor="middle" transform="translate(258.66666666666663,25)" font-family="&quot;Source Sans Pro&quot;, sans-serif" font-size="12px" font-style="normal" font-weight="400" fill="#808495" opacity="1">400</text><text text-anchor="end" transform="translate(292,25)" font-family="&quot;Source Sans Pro&quot;, sans-serif" font-size="12px" font-style="normal" font-weight="400" fill="#808495" opacity="1">450</text></g><g class="mark-text role-axis-title" pointer-events="none"><text text-anchor="middle" transform="translate(145.5,54)" font-family="&quot;Source Sans Pro&quot;, sans-serif" font-size="14px" font-style="normal" font-weight="400" fill="#808495" opacity="1">Time [s]</text></g></g><path class="foreground" aria-hidden="true" d="" pointer-events="none" display="none"/></g></g><g class="mark-group role-axis" role="graphics-symbol" aria-roledescription="axis" aria-label="Y-axis titled 'Torque [Nm]' for a linear scale with values from −2 to 24"><g transform="translate(0.5,0.5)"><path class="background" aria-hidden="true" d="M0,0h0v0h0Z" pointer-events="none"/><g><g class="mark-text role-axis-label" pointer-events="none"><text text-anchor="end" transform="translate(-16,209.84615384615387)" font-family="&quot;Source Sans Pro&quot;, sans-serif" font-size="12px" font-style="normal" font-weight="400" fill="#808495" opacity="1">0</text><text text-anchor="end" transform="translate(-16,166.96153846153848)" font-family="&quot;Source Sans Pro&quot;, sans-serif" font-size="12px" font-style="normal" font-weight="400" fill="#808495" opacity="1">5</text><text text-anchor="end" transform="translate(-16,124.07692307692307)" font-family="&quot;Source Sans Pro&quot;, sans-serif" font-size="12px" font-style="normal" font-weight="400" fill="#808495" opacity="1">10</text><text text-anchor="end" transform="translate(-16,81.1923076923077)" font-family="&quot;Source Sans Pro&quot;, sans-serif" font-size="12px" font-style="normal" font-weight="400" fill="#808495" opacity="1">15</text><text text-anchor="end" transform="translate(-16,38.30769230769231)" font-family="&quot;Source Sans Pro&quot;, sans-serif" font-size="12px" font-style="normal" font-weight="400" fill="#808495" opacity="1">20</text></g><g class="mark-text role-axis-title" pointer-events="none"><text text-anchor="middle" transform="translate(-43.927978515625,111.5) rotate(-90) translate(0,-3)" font-family="&quot;Source Sans Pro&quot;, sans-serif" font-size="14px" font-style="normal" font-weight="400" fill="#808495" opacity="1">Torque [Nm]</text></g></g><path class="foreground" aria-hidden="true" d="" pointer-events="none" display="none"/></g></g><g class="mark-line role-mark marks" role="graphics-object" aria-roledescription="line mark container"><path aria-label="Time [s]: 0; Torque [Nm]: −0.0729268491268; Time (s): 0; Torque_3: −0.0729268491268" role="graphics-symbol" aria-roledescription="line mark" d="M0,206.472L0.327,206.209L0.655,206.487L0.982,217.052L1.308,164.88L1.636,130.998L1.963,100.004L2.29,83.237L2.619,57.41L2.946,56.652L3.274,51.817L3.601,54.952L3.929,40.514L4.256,35.499L4.584,22.546L4.911,61.807L5.238,44.931L5.567,30.878L5.895,54.198L6.225,63.714L6.553,67.83L6.881,61.861L7.209,53.476L7.537,52.502L7.864,25.117L8.191,43.04L8.519,51.077L8.848,25.872L9.176,47.811L9.503,68.365L9.83,72.058L10.157,83.058L10.486,51.95L10.813,57.928L11.14,72.621L11.467,60.351L11.795,37.524L12.123,43.525L12.451,32.011L12.777,24.264L13.105,42.856L13.432,68.448L13.76,88.011L14.088,87.358L14.416,105.631L14.745,72.086L15.073,71.35L15.399,90.24L15.726,65.867L16.053,61.82L16.381,62.233L16.707,60.435L17.036,58.955L17.362,46.472L17.691,21.889L18.018,49.9L18.347,58.272L18.675,56.645L19.002,61.691L19.328,67.128L19.657,42.011L19.986,39.067L20.315,39.723L20.642,45.464L20.969,35.193L21.297,45.421L21.625,71.175L21.952,63.95L22.28,54.174L22.608,78.634L22.937,69.309L23.264,84.222L23.591,84.759L23.919,82.382L24.248,61.472L24.577,49.995L24.905,77.134L25.232,36.459L25.56,42.451L25.887,50.787L26.215,32.872L26.543,53.851L26.87,57.313L27.199,42.876L27.526,67.885L27.853,81.099L28.179,65.728L28.506,83.848L28.834,64.19L29.16,59.733L29.487,42.981L29.815,41.35L30.141,41.35L30.471,41.35L30.797,41.35L31.125,41.35L31.453,41.35L31.781,41.35L32.107,41.35L32.435,41.35L32.761,41.35L33.088,41.35L33.416,41.35L33.744,49.815L34.071,90.098L34.4,75.836L34.726,79.014L35.053,96.698L35.38,71.005L35.71,44.864L36.037,47.603L36.365,48.648L36.692,27.093L37.018,50.651L37.346,63.299L37.674,73.838L38.002,81.257L38.329,53.796L38.656,47.206L38.984,50.493L39.311,37.649L39.639,42.453L39.967,55.876L40.294,70.61L40.621,45.283L40.949,66.883L41.277,91.101L41.606,67.718L41.934,54.052L42.261,46.27L42.588,36.495L42.915,50.2L43.244,53.157L43.572,35.05L43.899,45.325L44.226,54.773L44.553,73.274L44.881,75.814L45.208,75.814L45.535,75.814L45.863,75.814L46.191,75.814L46.52,75.814L46.849,75.814L47.178,75.814L47.505,75.814L47.831,75.814L48.159,75.814L48.486,75.814L48.813,57.147L49.142,68.718L49.469,60.739L49.797,58.65L50.124,59.58L50.451,61.104L50.78,50.246L51.106,67.504L51.433,72.622L51.76,87.068L52.087,72.524L52.414,81.698L52.742,71.863L53.069,76.938L53.398,76.938L53.726,76.938L54.053,76.938L54.38,76.938L54.707,76.938L55.034,76.938L55.36,76.938L55.688,76.938L56.015,76.938L56.341,76.938L56.669,76.938L56.996,48.48L57.322,36.676L57.648,63.966L57.975,62.738L58.302,42.302L58.631,90.908L58.957,78.923L59.285,74.888L59.612,105.691L59.94,90.376L60.269,72.415L60.596,72.744L60.922,71.758L61.249,71.758L61.579,71.758L61.906,71.758L62.233,71.758L62.56,71.758L62.887,71.758L63.214,71.758L63.541,71.758L63.87,71.758L64.2,71.758L64.528,71.758L64.856,57.797L65.183,57.914L65.511,70.72L65.837,43.992L66.164,53.751L66.493,37.615L66.821,38.887L67.149,73.825L67.476,87.218L67.804,82.114L68.132,102.927L68.46,76.663L68.787,71.772L69.115,38.071L69.442,46.431L69.769,28.656L70.096,37.743L70.422,45.113L70.749,57.119L71.076,38.151L71.404,67.987L71.732,85.561L72.058,73.521L72.386,94.87L72.714,78.854L73.04,49.112L73.368,39.581L73.696,47.482L74.024,45.263L74.352,26.374L74.68,60.699L75.006,48.907L75.335,40.054L75.664,57.197L75.992,40.111L76.32,39.014L76.648,53.006L76.975,48.246L77.303,55.436L77.629,31.081L77.957,54.779L78.284,53.324L78.614,97.946L78.94,89.286L79.267,101.205L79.595,91.859L79.923,68.685L80.249,53.635L80.576,54.79L80.903,44.368L81.231,51.556L81.559,36.966L81.886,32.643L82.213,59.841L82.54,85.639L82.867,85.402L83.194,82.53L83.521,83.397L83.848,101.283L84.175,74.93L84.503,56.615L84.833,57.033L85.16,62.714L85.486,55.757L85.812,36.379L86.14,77.596L86.467,66.158L86.797,88.064L87.124,51.829L87.45,54.14L87.777,52.081L88.104,46.925L88.431,49.405L88.757,49.569L89.084,63.622L89.413,67.229L89.74,43.557L90.066,93.193L90.394,93.486L90.72,97.843L91.047,82.007L91.373,70.592L91.701,40.727L92.03,59.24L92.358,62.03L92.686,49.06L93.013,56.479L93.341,36.967L93.668,52.22L93.996,35.97L94.322,46.74L94.651,43.38L94.979,50.703L95.306,43.944L95.635,51.286L95.963,75.801L96.291,54.924L96.619,66.098L96.948,85.341L97.276,111.464L97.603,68.904L97.929,67.407L98.258,42.115L98.585,51.406L98.911,67.163L99.239,67.163L99.566,67.163L99.893,67.163L100.22,67.163L100.548,67.163L100.877,67.163L101.206,67.163L101.532,67.163L101.86,67.163L102.188,67.163L102.516,67.163L102.844,67.163L103.171,26.743L103.5,48.881L103.827,38.654L104.153,32.644L104.48,30.518L104.806,30.518L105.132,30.518L105.458,30.518L105.784,30.518L106.113,30.518L106.44,30.518L106.768,30.518L107.099,30.518L107.426,30.518L107.753,30.518L108.08,30.518L108.408,45.336L108.735,45.488L109.063,45.356L109.39,45.537L109.718,45.567L110.045,45.495L110.372,45.703L110.7,45.563L111.026,45.461L111.354,45.418L111.681,45.219L112.007,45.258L112.334,45.406L112.665,45.413L112.992,45.561L113.32,45.428L113.648,45.322L113.975,45.154L114.303,45.336L114.629,45.311L114.961,45.311L115.288,45.311L115.616,45.311L115.943,45.311L116.27,45.311L116.595,45.311L116.923,45.311L117.249,45.311L117.577,45.311L117.904,45.311L118.232,45.311L118.56,40.455L118.888,29.975L119.215,46.537L119.542,46.688L119.869,91.534L120.199,68.473L120.526,93.912L120.854,73.438L121.18,56.001L121.507,56.662L121.833,30.336L122.16,61.685L122.487,82.461L122.814,85.318L123.142,99.407L123.469,88.08L123.797,90.439L124.124,106.576L124.452,106.576L124.781,106.576L125.109,106.576L125.436,106.576L125.763,106.576L126.09,106.576L126.417,106.576L126.746,106.576L127.073,106.576L127.4,106.576L127.728,106.576L128.055,39.521L128.382,43.06L128.709,66.555L129.037,45.333L129.364,43.184L129.691,34.207L130.019,31.573L130.345,48.851L130.675,70.562L131.004,70.991L131.334,56.555L131.661,66.054L131.989,87.904L132.316,101.078L132.644,53.358L132.971,57.221L133.298,49.502L133.624,54.33L133.952,61.603L134.279,74.887L134.606,70.838L134.933,40.22L135.261,50.732L135.59,33.949L135.918,33.027L136.245,47.827L136.572,35.808L136.9,64.94L137.228,62.968L137.556,79.424L137.885,66.548L138.212,82.031L138.541,82.031L138.869,82.031L139.196,82.031L139.523,82.031L139.85,82.031L140.177,82.031L140.505,82.031L140.833,82.031L141.162,82.031L141.49,82.031L141.82,82.031L142.148,82.031L142.475,60.531L142.801,62.771L143.13,84.545L143.457,52.698L143.785,55.808L144.113,52.912L144.44,28.566L144.767,63.896L145.098,79.602L145.426,77.871L145.754,95.446L146.081,62.974L146.409,64.63L146.736,60.11L147.063,45.065L147.389,16.385L147.716,39.835L148.045,45.238L148.372,24.723L148.7,48.575L149.028,59.348L149.354,68.861L149.681,63.798L150.008,46.926L150.336,53.821L150.662,28.875L150.991,56.802L151.318,71.228L151.645,84.951L151.972,98.796L152.301,74.756L152.629,59.62L152.956,64.436L153.283,64.236L153.61,62.672L153.937,70.484L154.265,64.49L154.594,49.386L154.921,54.33L155.248,25.681L155.575,29.522L155.903,48.033L156.23,78.481L156.557,85.699L156.884,86.07L157.211,93.207L157.538,74.279L157.866,65.183L158.194,58.489L158.522,52.17L158.85,39.119L159.178,43.084L159.505,35.238L159.833,35.415L160.161,55.148L160.489,62.773L160.815,61.038L161.143,69.564L161.47,69.564L161.798,69.564L162.125,69.564L162.451,69.564L162.779,69.564L163.107,69.564L163.434,69.564L163.762,69.564L164.089,69.564L164.417,69.564L164.744,69.564L165.071,69.564L165.399,50.03L165.726,74.6L166.053,90.282L166.379,84.558L166.706,82.648L167.034,87.149L167.361,84.892L167.69,84.508L168.018,86.928L168.346,85.266L168.673,85.227L169,86.628L169.326,85.181L169.654,85.191L169.982,86.419L170.308,85.357L170.636,85.685L170.965,86.071L171.293,85.553L171.621,85.781L171.948,85.832L172.275,85.445L172.601,85.665L172.928,85.978L173.255,85.694L173.582,85.807L173.91,85.895L174.238,85.773L174.566,85.866L174.893,85.727L175.219,85.869L175.547,85.715L175.874,85.753L176.201,85.686L176.528,85.948L176.855,85.948L177.183,85.948L177.512,85.948L177.84,85.948L178.166,85.948L178.493,85.948L178.821,85.948L179.149,85.948L179.476,85.948L179.804,85.948L180.133,85.948L180.459,85.948L180.786,70.04L181.113,90.515L181.441,57.393L181.767,64.074L182.094,43.145L182.423,65.199L182.75,33.32L183.079,66.112L183.406,72.559L183.734,78.937L184.063,99.064L184.391,94.586L184.718,94.586L185.045,94.586L185.372,94.586L185.701,94.586L186.03,94.586L186.358,94.586L186.687,94.586L187.015,94.586L187.343,94.586L187.673,94.586L188,94.586L188.326,94.586L188.653,41.937L188.98,66.646L189.308,64.079L189.635,88.112L189.963,64.132L190.29,62.497L190.616,48.738L190.945,76.314L191.273,76.082L191.602,94.479L191.93,78.28L192.258,64.074L192.587,54.087L192.913,86.625L193.241,78.816L193.568,94.186L193.895,64.531L194.222,74.957L194.549,67.854L194.877,69.47L195.205,48.448L195.533,78.647L195.861,101.991L196.188,133.051L196.516,168.331L196.844,203.867L197.171,205.581L197.499,208.895L197.828,205.024L198.156,203.849L198.483,204.702L198.812,205.729L199.141,206.747L199.469,206.932L199.799,206.686L200.126,206L200.456,205.621L200.783,205.624L201.11,205.625L201.439,205.805L201.767,206.169L202.095,206.15L202.423,206.38L202.75,206.283L203.077,206.008L203.405,206.14L203.732,206.14L204.061,206.14L204.387,206.14L204.715,206.14L205.043,206.14L205.371,206.14L205.698,206.14L206.024,206.14L206.351,206.14L206.68,206.14L207.006,206.14L207.333,206.14L207.661,206.112L207.99,206.112L208.319,206.112L208.647,206.112L208.974,206.112L209.301,206.112L209.628,206.112L209.956,206.112L210.283,206.112L210.61,206.112L210.938,206.112L211.265,206.112L211.593,206.112L211.921,206.04L212.251,206.223L212.58,206.033L212.907,206.145L213.234,206.284L213.561,206.247L213.89,206.329L214.219,206.198L214.548,206.083L214.876,205.992L215.203,206.125L215.529,206.076L215.856,206.174L216.182,206.182L216.51,206.196L216.837,206.19L217.166,206.15L217.493,206.207L217.823,206L218.15,206.079L218.478,206.24L218.804,206.085L219.132,206.315L219.46,206.097L219.788,206.08L220.117,206.221L220.446,206.162L220.774,206.102L221.102,206.041L221.428,206.049L221.756,206.157L222.083,206.09L222.411,206.047L222.739,206.061L223.067,206.254L223.394,206.254L223.723,206.254L224.053,206.254L224.379,206.254L224.706,206.254L225.033,206.254L225.361,206.254L225.688,206.254L226.015,206.254L226.342,206.254L226.671,206.254L226.998,206.254L227.326,206L227.653,205.917L227.98,206.08L228.308,206.138L228.635,206.236L228.962,206.128L229.289,206.382L229.616,206.216L229.944,205.922L230.271,205.999L230.598,206.156L230.924,205.963L231.252,205.963L231.579,205.963L231.906,205.963L232.234,205.963L232.56,205.963L232.887,205.963L233.215,205.963L233.543,205.963L233.871,205.963L234.199,205.963L234.527,205.963L234.856,205.963L235.183,206.282L235.511,206.089L235.839,206.115L236.167,206.121L236.494,206.121L236.823,206.196L237.152,206.185L237.48,206.05L237.807,206.184L238.135,206.225L238.463,206.255L238.791,206.249L239.117,205.992L239.444,205.992L239.772,205.992L240.1,205.992L240.43,205.992L240.758,205.992L241.088,205.992L241.415,205.992L241.743,205.992L242.07,205.992L242.398,205.992L242.725,205.992L243.052,205.992L243.38,206.067L243.707,205.903L244.035,206.213L244.362,206.148L244.689,206.066L245.015,206.386L245.343,206.219L245.669,206.102L245.997,206.056L246.324,206.18L246.662,206.186L246.99,205.986L247.317,205.986L247.645,205.986L247.973,205.986L248.3,205.986L248.627,205.986L248.953,205.986L249.28,205.986L249.606,205.986L249.934,205.986L250.263,205.986L250.591,205.986L250.918,205.986L251.245,205.995L251.573,205.979L251.901,206.104L252.229,206.075L252.556,206.015L252.884,205.961L253.212,206.175L253.539,206.154L253.866,205.941L254.194,206.05L254.521,206.05L254.849,206.05L255.176,206.05L255.505,206.05L255.832,206.05L256.161,206.05L256.489,206.05L256.817,206.05L257.144,206.05L257.471,206.05L257.798,206.05L258.126,206.05L258.453,206.11L258.781,205.984L259.109,206.138L259.438,206.085L259.766,205.994L260.095,206.002L260.422,206.024L260.752,206.183L261.078,205.886L261.406,205.931L261.733,206.06L262.06,206.053L262.388,206.053L262.715,206.053L263.042,206.053L263.37,206.053L263.697,206.053L264.024,206.053L264.353,206.053L264.679,206.053L265.007,206.053L265.334,206.053L265.662,206.053L265.989,206.053L266.317,206.087L266.643,206.039L266.971,206.217L267.298,206.008L267.625,206.11L267.952,206.117L268.28,206.103L268.608,206.264L268.937,205.912L269.266,205.968L269.593,206.047L269.92,206.047L270.248,206.047L270.575,206.047L270.903,206.047L271.232,206.047L271.56,206.047" stroke="#0068c9" stroke-width="2"/></g></g><path class="foreground" aria-hidden="true" d="" display="none"/></g></g></g></svg>